/* XPM */
const static char *breakPoint_xpm[] = {
"16 14 12 1",
" 	c None",
".	c #FF0000",
"+	c #D50000",
"@	c #C20000",
"#	c #870000",
"$	c #B70000",
"%	c #EA0000",
"&	c #000000",
"*	c #700000",
"=	c #B00000",
"-	c #1D0000",
";	c #390000",
"                ",
"      ....      ",
"    .......+    ",
"   .........@   ",
"   ..........#  ",
"  ...........$  ",
"  ...........%& ",
"  ...........%& ",
"  ...........$& ",
"   ..........*& ",
"   +........=-  ",
"    @......=;&  ",
"     #$%%$*-&   ",
"       &&&&     "};
