/* XPM */
const static char *currentRow_xpm[] = {
"16 14 8 1",
" 	c None",
".	c #28C850",
"+	c #23B047",
"@	c #23AF46",
"#	c #23AE46",
"$	c #05180A",
"%	c #041508",
"&	c #000000",
"                ",
"                ",
"          .     ",
"          .+    ",
"          ..@   ",
" ............@  ",
" .............@ ",
" .............#$",
" ............#%&",
"  &&&&&&&&..#%& ",
"          .#%&  ",
"          .%&   ",
"           &    ",
"                "};
