/* XPM */
const static char *currentBreak_xpm[] = {
"16 14 26 1",
" 	c None",
".	c #FF0000",
"+	c #53A040",
"@	c #AE180A",
"#	c #35BC4B",
"$	c #2AAC45",
"%	c #9D1709",
"&	c #28C850",
"*	c #27AC45",
"=	c #6D180A",
"-	c #26AC45",
";	c #08260F",
">	c #23AD45",
",	c #23AE46",
"'	c #05180A",
")	c #041508",
"!	c #000000",
"~	c #D50000",
"{	c #040000",
"]	c #C20000",
"^	c #46AC45",
"/	c #070000",
"(	c #870000",
"_	c #B70000",
":	c #EA0000",
"<	c #681508",
"                ",
"      ....      ",
"    ......+@    ",
"   .......#$%   ",
"   .......#&*=  ",
" &&&&&&&&&&&&-; ",
" &&&&&&&&&&&&&> ",
" &&&&&&&&&&&&&,'",
" &&&&&&&&&&&&,)!",
"  !!!!!!!!&&,)! ",
"   ~......&,){! ",
"    ].....^)/!  ",
"     (_::_<{!   ",
"       !!!!!    "};
