/* XPM */
const static char * pause_xpm[] = {
"16 17 3 1",
" 	c None",
".	c #FFFFFF",
"+	c #000000",
" ...... ......  ",
" .++++. .++++.  ",
" .++++. .++++.  ",
" .++++. .++++.  ",
" .++++. .++++.  ",
" .++++. .++++.  ",
" .++++. .++++.  ",
" .++++. .++++.  ",
" .++++. .++++.  ",
" .++++. .++++.  ",
" .++++. .++++.  ",
" .++++. .++++.  ",
" .++++. .++++.  ",
" .++++. .++++.  ",
" .++++. .++++.  ",
" ...... ......  ",
"                "};
