/* XPM */
const static char * stop_xpm[] = {
"16 17 3 1",
" 	c None",
".	c #FFFFFF",
"+	c #000000",
"................",
".++++++++++++++.",
".++++++++++++++.",
".++++++++++++++.",
".++++++++++++++.",
".++++++++++++++.",
".++++++++++++++.",
".++++++++++++++.",
".++++++++++++++.",
".++++++++++++++.",
".++++++++++++++.",
".++++++++++++++.",
".++++++++++++++.",
".++++++++++++++.",
".++++++++++++++.",
"................",
"                "};
